<svg xmlns="http://www.w3.org/2000/svg" width="28" height="28" fill="none" viewBox="0 0 28 28">
    <circle cx="14" cy="14" r="14" fill="#fff"/>
    <path fill="#4285F4" d="M21.684 14.184c0-.544-.044-1.09-.138-1.625H14v3.08h4.321c-.18.994-.755 1.873-1.599 2.431v2H19.3c1.514-1.394 2.384-3.452 2.384-5.886z"/>
    <path fill="#34A853" d="M14 22c2.158 0 3.977-.708 5.303-1.931l-2.578-1.999c-.717.488-1.643.764-2.722.764-2.087 0-3.857-1.408-4.492-3.3h-2.66v2.06C8.209 20.295 10.975 22 14 22z"/>
    <path fill="#FBBC04" d="M9.508 15.534c-.335-.994-.335-2.07 0-3.063v-2.06H6.851c-1.135 2.26-1.135 4.923 0 7.183l2.657-2.06z"/>
    <path fill="#EA4335" d="M14 9.166c1.14-.017 2.243.412 3.069 1.2l2.284-2.284C17.907 6.724 15.987 5.977 14 6c-3.025 0-5.791 1.704-7.149 4.409l2.657 2.06c.632-1.896 2.405-3.304 4.492-3.304z"/>
</svg>
