<svg xmlns="http://www.w3.org/2000/svg" width="32" height="32" fill="none" viewBox="0 0 32 32">
    <path fill="#222" d="M25.333 18.667c1.04 0 1.894.793 1.991 1.807l.01.193V22c0 1.04-.794 1.894-1.808 1.99l-.193.01H8c-1.04 0-1.894-.793-1.99-1.807L6 22v-1.333c0-1.04.793-1.894 1.807-1.991l.193-.01h17.333zM8.916 20H8c-.286 0-.53.18-.625.434l-.03.113-.012.12V22c0 .327.236.6.547.656l.12.01h.916V20zm16.417 0H10.25v2.667h15.084c.328 0 .6-.236.656-.547L26 22v-1.333c0-.328-.236-.6-.547-.656l-.12-.011zM10 6c.368 0 .667.298.667.667 0 1.334-.47 2.979-1.409 4.974C8.415 13.26 8 14.713 8 16c0 .368-.298.667-.667.667-.368 0-.666-.299-.666-.667 0-1.52.473-3.178 1.396-4.95.851-1.81 1.27-3.277 1.27-4.383 0-.369.299-.667.667-.667zm4 0c.368 0 .667.298.667.667 0 1.462-.63 3.031-1.863 4.709l-.273.36c-1.253 1.65-1.864 3.076-1.864 4.264 0 .368-.299.667-.667.667-.368 0-.667-.299-.667-.667 0-1.524.723-3.209 2.14-5.076 1.25-1.606 1.86-3.028 1.86-4.257 0-.369.299-.667.667-.667z"/>
</svg>
