<svg xmlns="http://www.w3.org/2000/svg" width="32" height="32" fill="none" viewBox="0 0 32 32">
    <path fill="#222" d="M16 7.667c2.479 0 5.135.35 6.586 1.076.796.398 1.378 1.035 1.902 1.946l.173.314c.075.143.221.444.365.742.057-.033.12-.055.188-.067l.12-.011h1.333c.368 0 .666.298.666.666 0 .328-.235.6-.546.656l-.12.011h-.918c.137.134.312.265.536.405l.208.124.333.185.59.339c.247.157.43.307.569.493.515.692.817 4.106.628 5.934-.05.492-.118.956-.197 1.388-.115.633-.232 1.087-.314 1.339-.077.235-.276.405-.513.449l-.121.01h-.135v.667c0 .328-.235.6-.546.656l-.12.011H24c-.327 0-.6-.236-.656-.547l-.01-.12-.001-.666h-.42c-.158 0-.305-.01-.453-.031l-.224-.04-.847-.203-.242-.048c-.248-.045-.52-.082-.84-.113-1.454-.139-3.114-.212-4.306-.212-1.177 0-2.792.073-4.256.212-.32.03-.593.068-.842.114l-.242.048-.829.2c-.155.033-.303.054-.456.065l-.236.008h-.474v.666c0 .328-.235.6-.546.656L8 25H5.333c-.327 0-.6-.236-.656-.547l-.01-.12v-.666h-.135c-.247 0-.47-.137-.585-.348l-.048-.112-.079-.265c-.07-.261-.154-.622-.236-1.074-.08-.432-.146-.895-.197-1.388-.19-1.832.113-5.243.63-5.935.137-.183.318-.333.561-.489l.19-.113.772-.433.188-.114c.217-.136.388-.266.522-.396h-.917c-.368 0-.666-.298-.666-.667 0-.327.235-.6.546-.655l.12-.011h1.334c.111 0 .217.027.31.076l.064-.135.3-.61c.57-1.077 1.19-1.813 2.073-2.256 1.452-.728 4.095-1.075 6.587-1.075zM16 13c-2.972 0-5.32.245-7.108.65-.949.215-1.541.423-1.828.562l-.077.04c-.081.044-.168.07-.254.078-.105.073-.217.147-.336.22l-.186.112-.051.029-.192.107c-.195.108-.454.253-.595.335l-.157.1c-.071.05-.115.089-.131.11-.248.332-.528 3.49-.372 5 .048.457.11.887.182 1.286l.045.234.101.47H9.14l.143-.004.136-.015.142-.025.818-.198c.366-.08.76-.14 1.24-.186 1.507-.144 3.164-.219 4.382-.219 1.233 0 2.935.076 4.433.22.358.033.668.076.955.128l.387.08.728.177.138.024.133.014.139.004h4.043l.074-.326.074-.378c.073-.4.134-.829.182-1.286.156-1.507-.124-4.668-.37-5l-.07-.064-.064-.047-.158-.1-.834-.468-.257-.156c-.095-.06-.184-.12-.268-.18-.057-.004-.114-.017-.17-.038l-.083-.039c-.248-.136-.862-.364-1.905-.6C21.32 13.244 18.972 13 16 13zm.677 4.667c1.222 0 1.72.055 3.086.267 1.366.212 2.398.528 2.714.907.578.68-.283 1.343-1.01 1.434-.333.04-.825.054-1.534.057h-1.08c-.61-.001-1.327-.004-2.17-.004s-1.56.003-2.17.005h-1.08c-.708-.004-1.2-.018-1.534-.058-.728-.086-1.654-.799-1.022-1.434.422-.418 1.405-.731 2.714-.907 1.31-.176 1.865-.267 3.086-.267zM24.98 15l.178.004c.082.003.149.056.155.125.035.228.027.46-.025.687-.101.393-.648.517-1.177.517-.883 0-1.765-.043-2.641-.129-.143-.02-.184-.221-.07-.295.452-.283.962-.495 1.504-.627 1.064-.26 1.663-.296 2.254-.278L24.979 15zm-15.882.282c.542.132 1.052.344 1.504.627.114.074.073.274-.07.295-.876.086-1.758.13-2.64.13-.53 0-1.077-.125-1.178-.518-.052-.227-.06-.459-.025-.687.006-.069.073-.122.155-.125.59-.018 1.19.017 2.254.278zM16 9c-2.296 0-4.777.326-5.99.934-.584.293-1.039.833-1.49 1.687l-.252.51-.163.338c.152-.04.317-.08.491-.12 1.889-.427 4.335-.682 7.403-.682 3.068 0 5.515.255 7.403.683l.496.12-.417-.845c-.452-.857-.907-1.397-1.492-1.69C20.777 9.33 18.283 9 16 9z"/>
</svg>
