<svg xmlns="http://www.w3.org/2000/svg" width="32" height="32" fill="none" viewBox="0 0 32 32">
    <path fill="#222" d="M12.156 12.667c.897 0 1.616.722 1.702 1.628l.009.184v4.848c0 .113-.032.222-.09.317l-.068.089-.954 1.039V26.6c0 .294-.212.54-.492.59l-.107.01c-.295 0-.54-.212-.59-.492l-.01-.108v-6.06c0-.113.031-.223.09-.317l.067-.09.954-1.04V14.48c0-.31-.19-.553-.423-.603l-.088-.01H7.71c-.24 0-.457.208-.502.5l-.009.113v4.616l.953 1.039c.076.083.127.185.148.294l.01.111v6.06c0 .332-.269.6-.6.6-.294 0-.54-.211-.59-.491l-.01-.108v-5.828l-.953-1.04c-.076-.082-.127-.184-.148-.294l-.01-.11v-4.85c0-.927.663-1.708 1.534-1.802l.177-.01h4.445zm10.944 0c.924 0 1.674.723 1.76 1.638l.002.063 2.31 7.2c.113.352-.116.711-.464.774l-.108.01-1.733-.001V26.6c0 .294-.212.54-.492.59l-.108.01c-.294 0-.54-.212-.59-.492l-.01-.108V21.75c0-.294.212-.54.492-.59l.108-.01h1.51l-2.081-6.489-.029-.183c0-.305-.205-.552-.466-.603l-.1-.01h-2.334c-.273 0-.508.213-.557.501l-.01.112-.028.183-2.082 6.489h1.51c.295 0 .54.213.59.493l.01.107V26.6c0 .331-.268.6-.6.6-.294 0-.54-.212-.59-.492L19 26.6v-4.25l-1.733.001c-.37 0-.642-.327-.595-.677l.024-.106 2.31-7.203.003-.06c.08-.858.744-1.547 1.587-1.63l.171-.008H23.1zM10 5.333c1.473 0 2.667 1.194 2.667 2.667 0 1.473-1.194 2.667-2.667 2.667-1.473 0-2.667-1.194-2.667-2.667 0-1.473 1.194-2.667 2.667-2.667zm12 0c1.473 0 2.667 1.194 2.667 2.667 0 1.473-1.194 2.667-2.667 2.667-1.473 0-2.667-1.194-2.667-2.667 0-1.473 1.194-2.667 2.667-2.667zm-12 1.2c-.81 0-1.467.657-1.467 1.467S9.19 9.467 10 9.467 11.467 8.81 11.467 8 10.81 6.533 10 6.533zm12 0c-.81 0-1.467.657-1.467 1.467S21.19 9.467 22 9.467 23.467 8.81 23.467 8 22.81 6.533 22 6.533z"/>
</svg>
