<svg xmlns="http://www.w3.org/2000/svg" width="32" height="32" fill="none" viewBox="0 0 32 32">
    <path fill="#222" d="M16 22.667c.736 0 1.333.596 1.333 1.333 0 .736-.597 1.333-1.333 1.333s-1.333-.597-1.333-1.333.597-1.333 1.333-1.333zm5.24-2.515c.275.245.3.666.055.941-.245.275-.666.3-.941.056-2.479-2.203-6.213-2.203-8.691 0-.275.244-.697.22-.941-.056-.245-.275-.22-.696.055-.94 2.984-2.653 7.48-2.653 10.462 0zm3.864-3.83c.269.25.283.672.031.941-.251.27-.673.284-.942.032-4.592-4.294-11.727-4.294-16.32 0-.268.252-.69.237-.942-.032-.251-.269-.237-.69.032-.942 5.105-4.773 13.036-4.773 18.14 0zm3.371-4.239c.275.245.3.667.054.941-.245.275-.666.3-.941.054-6.594-5.882-16.55-5.882-23.144 0-.275.245-.696.221-.941-.054-.246-.274-.222-.696.053-.94 7.1-6.334 17.82-6.334 24.92 0z"/>
</svg>
