<svg xmlns="http://www.w3.org/2000/svg" width="32" height="32" fill="none" viewBox="0 0 32 32">
    <path fill="#222" d="M16 6.667c5.891 0 10.667 4.775 10.667 10.666S21.89 28 16 28 5.333 23.224 5.333 17.333c0-5.89 4.776-10.666 10.667-10.666zM16 8c-5.155 0-9.333 4.179-9.333 9.333 0 5.155 4.178 9.334 9.333 9.334s9.333-4.18 9.333-9.334S21.155 8 16 8zm0 4.667c.327 0 .6.235.656.546l.01.12v3.334h2c.328 0 .6.235.657.546l.01.12c0 .328-.235.6-.546.656l-.12.01H16c-.327 0-.6-.235-.656-.546l-.01-.12v-4c0-.368.298-.666.666-.666zM9.873 4.94c.192.265.161.624-.057.852l-.09.08-3.667 2.666c-.298.217-.715.15-.931-.147-.193-.265-.162-.624.056-.852l.09-.08 3.667-2.666c.298-.216.715-.15.931.147zm13.083-.209l.103.062 3.666 2.667c.298.216.364.633.147.931-.192.265-.543.346-.828.209l-.103-.062-3.666-2.667c-.298-.216-.364-.633-.147-.93.192-.266.543-.347.828-.21z"/>
</svg>
