<svg xmlns="http://www.w3.org/2000/svg" width="32" height="32" fill="none" viewBox="0 0 32 32">
    <path fill="#222" d="M20.044 4.578c.409-.306.979-.058 1.058.419l.01.114v21.333c0 .51-.542.817-.97.595l-.098-.061-5.75-4.313L8 22.667c-1.694 0-3.092-1.264-3.305-2.9l-.021-.215-.007-.219v-6.666c0-1.768 1.375-3.214 3.114-3.327L8 9.333l5.704-.001 6.34-4.754zm-.267 1.866l-5.45 4.088c-.087.065-.187.108-.293.125l-.107.009H8c-1.04 0-1.894.794-1.99 1.808l-.01.192v6.667c0 1.04.793 1.894 1.807 1.991l.193.01 6.517-.002c.109 0 .215.027.31.076l.09.058 4.86 3.644V6.444zm5.266 4.568c2.652 2.984 2.652 7.48 0 10.463-.245.275-.666.3-.941.055-.275-.245-.3-.666-.056-.941 2.203-2.478 2.203-6.213 0-8.69-.244-.276-.22-.697.056-.942.275-.245.696-.22.941.055z"/>
</svg>
