<svg xmlns="http://www.w3.org/2000/svg" width="24" height="24" fill="none" viewBox="0 0 24 24">
    <path fill="#222" d="M19.5 13.572L12 21l-7.5-7.428h15zm-15 0c-.495-.481-.885-1.06-1.145-1.7-.26-.639-.385-1.325-.366-2.015.018-.69.179-1.369.472-1.994.293-.624.713-1.182 1.232-1.636.52-.455 1.128-.797 1.786-1.006.658-.208 1.352-.277 2.038-.204.687.073 1.35.288 1.95.63.6.342 1.121.805 1.533 1.359.413-.55.936-1.009 1.535-1.347.599-.34 1.261-.55 1.946-.621.684-.071 1.376 0 2.032.208.655.21 1.26.55 1.778 1.004.518.454.936 1.01 1.23 1.632.292.622.454 1.299.473 1.987.02.688-.103 1.372-.36 2.01-.257.639-.643 1.217-1.134 1.699"/>
</svg>
