<svg xmlns="http://www.w3.org/2000/svg" width="32" height="32" fill="none" viewBox="0 0 32 32">
    <path fill="#222" d="M16 2.667c7.364 0 13.333 5.97 13.333 13.333 0 7.364-5.97 13.333-13.333 13.333-7.364 0-13.333-5.97-13.333-13.333C2.667 8.636 8.637 2.667 16 2.667zM16 4C9.373 4 4 9.373 4 16c0 6.628 5.373 12 12 12s12-5.372 12-12c0-6.627-5.373-12-12-12zm-6.332 8.381c.375 0 .72.053 1.034.16.314.107.584.256.807.447.224.19.4.419.526.686.126.268.19.562.19.883-.008.26-.06.512-.158.756-.097.244-.222.477-.373.697-.152.22-.324.434-.515.642l-.291.305-.3.296-1.679 1.564.213-.041.204-.024.197-.011.188-.004h2.6V20H6.667v-.802l2.719-2.476.237-.226c.301-.296.547-.575.738-.837.238-.327.357-.685.357-1.073 0-.347-.102-.61-.308-.786-.206-.178-.486-.266-.84-.266-.303 0-.56.082-.77.245-.209.164-.357.356-.443.577-.03.074-.049.15-.06.23l-.015.128-.012.143-1.42-.22.049-.25c.147-.643.445-1.128.894-1.455.506-.367 1.13-.551 1.875-.551zm8.418.05v4.622h1.018v1.133h-1.018V20h-1.311v-1.814h-3.836v-1.123l.942-1.15 2.807-3.482h1.398zm3.531-.43v2.014l-.065 1.053.256-.206c.177-.133.369-.254.573-.366.307-.167.666-.25 1.078-.25.657 0 1.134.198 1.43.596.26.348.405.815.437 1.401l.007.258v3.5h-1.592v-3.32l-.006-.206c-.018-.325-.083-.56-.195-.706-.133-.173-.352-.26-.655-.26-.253 0-.47.053-.65.16-.136.08-.285.189-.45.325l-.168.146V20h-1.581v-8h1.581zm-4.82 2.104l-2.384 2.968h2.362l.002-2.479.02-.489z"/>
</svg>
