<svg xmlns="http://www.w3.org/2000/svg" width="32" height="32" fill="none" viewBox="0 0 32 32">
    <path fill="#222" d="M17.373 4.668l.7.042c4.137.25 7.713 2.943 9.108 6.821l.129.383.02.117.003.063v9.38c0 .906-.608 1.69-1.467 1.927l-.188.043-17.333 3.033c-1.088.19-2.125-.537-2.315-1.625l-.022-.172L6 24.507v-8.924c-.01-.143.027-.291.123-.421l.083-.095L16.872 4.852c.108-.103.245-.166.391-.182l.11-.002zM26 19.256L7.333 22.65l.001 1.887.01.086c.056.322.335.55.651.552l.12-.01 17.333-3.034c.28-.049.492-.267.541-.538l.011-.118v-2.218zm0-2.353L7.333 20.296v.999l18.626-3.387.04-.004v-1.001zm0-4.016L7.333 16.153v2.788l18.626-3.385.041-.005v-2.664zm-8.417-6.87l-8.879 8.502 17.06-2.95-.104-.244c-1.27-2.814-3.905-4.792-6.978-5.216l-.343-.04-.347-.028-.41-.025zm1.084.65c1.104 0 2 .895 2 2 0 1.104-.896 2-2 2-1.105 0-2-.896-2-2 0-1.105.895-2 2-2z"/>
</svg>
