<svg xmlns="http://www.w3.org/2000/svg" width="48" height="48" fill="none" viewBox="0 0 48 48">
    <path fill="#FB4" stroke="#EBA01F" d="M24 4.5c4.003 0 7.636 1.516 10.266 3.975 2.612 2.442 4.234 5.814 4.234 9.547 0 6.715-5.39 16.14-12.453 25.461-.476.64-1.238 1.017-2.047 1.017-.808 0-1.57-.375-2.042-1.01C14.89 34.158 9.5 24.732 9.5 18.022c0-3.733 1.622-7.105 4.234-9.547C16.364 6.016 19.997 4.5 24 4.5z"/>
    <path fill="#fff" d="M24 14c2.761 0 5 2.239 5 5s-2.239 5-5 5-5-2.239-5-5 2.239-5 5-5z"/>
</svg>
