<svg xmlns="http://www.w3.org/2000/svg" width="32" height="32" fill="none" viewBox="0 0 32 32">
    <path fill="#222" d="M22.667 4C25.612 4 28 6.388 28 9.333v13.334C28 25.612 25.612 28 22.667 28H9.333C6.388 28 4 25.612 4 22.667V9.333C4 6.388 6.388 4 9.333 4h13.334zm0 1.333H9.333C7.203 5.333 5.462 7 5.34 9.098l-.007.235v13.334c0 2.13 1.666 3.871 3.765 3.993l.235.007h13.334c2.13 0 3.871-1.666 3.993-3.765l.007-.235V9.333c0-2.13-1.666-3.871-3.765-3.993l-.235-.007zM16 8c4.418 0 8 3.582 8 8s-3.582 8-8 8-8-3.582-8-8 3.582-8 8-8zm0 1.333c-3.682 0-6.667 2.985-6.667 6.667s2.985 6.667 6.667 6.667 6.667-2.985 6.667-6.667S19.682 9.333 16 9.333zm2.667 3.334c.327 0 .6.236.656.546l.01.12v5.334c0 .368-.298.666-.666.666-.328 0-.6-.235-.656-.546l-.011-.12v-5.334c0-.368.299-.666.667-.666zm-5.334 0c.328 0 .6.236.656.546l.011.12v5.334c0 .368-.299.666-.667.666-.327 0-.6-.235-.656-.546l-.01-.12v-5.334c0-.368.298-.666.666-.666z"/>
</svg>
