<svg xmlns="http://www.w3.org/2000/svg" width="32" height="32" fill="none" viewBox="0 0 32 32">
    <path fill="#222" d="M27.635 6.739l.06.034.078.06.06.06.069.092.039.073.028.075.024.104.005.038.002.058-.001 17.375-.016.107-.029.094-.026.059-.034.06-.06.078-.06.06-.092.07-.074.038-.074.029-.09.021-.11.01c-.052 0-.101-.006-.15-.017l-.093-.03-.06-.026c-3.193-1.62-7.11-1.68-10.358-.18l-.371.18c-.05.025-.1.043-.152.055l-.11.016-.04.001c-.052 0-.103-.006-.151-.017l-.09-.028-.06-.027c-3.195-1.62-7.111-1.68-10.36-.18l-.37.18-.077.033-.102.028-.082.01-.11-.002-.098-.018-.108-.038-.096-.053-.047-.034-.084-.081-.052-.068-.041-.07-.033-.076-.032-.129-.004-.035L4 7.333l.007-.088.014-.078.038-.109.053-.096.035-.046.057-.063.091-.073.07-.041c3.564-1.807 7.917-1.872 11.537-.194l.098.047.098-.047c3.62-1.678 7.973-1.613 11.537.194zM16.668 7.75l-.002 15.881c3.174-1.286 6.83-1.286 10.002.001l-.001-15.881c-3.131-1.446-6.875-1.445-10 0zm-11.334 0l-.001 15.881c3.173-1.286 6.829-1.286 10.002.001l-.002-15.881c-3.13-1.446-6.875-1.445-9.999 0zm7.987 10.311c.322.177.44.582.264.905-.177.323-.583.441-.905.264-1.454-.797-3.562-.698-4.663-.018-.313.194-.724.097-.917-.216-.194-.313-.097-.724.216-.918 1.5-.927 4.12-1.05 6.005-.017zm11.333 0c.323.177.441.582.264.905-.177.323-.582.441-.905.264-1.454-.797-3.562-.698-4.662-.018-.313.194-.724.097-.918-.216-.194-.313-.097-.724.216-.918 1.5-.927 4.12-1.05 6.005-.017zm-11.333-4c.322.177.44.582.264.905-.177.323-.583.441-.905.264-1.454-.797-3.562-.698-4.663-.018-.313.194-.724.097-.917-.216-.194-.313-.097-.724.216-.918 1.5-.927 4.12-1.05 6.005-.017zm11.333 0c.323.177.441.582.264.905-.177.323-.582.441-.905.264-1.454-.797-3.562-.698-4.662-.018-.313.194-.724.097-.918-.216-.194-.313-.097-.724.216-.918 1.5-.927 4.12-1.05 6.005-.017zm-11.333-4c.322.177.44.582.264.905-.177.323-.583.441-.905.264-1.454-.797-3.562-.698-4.663-.018-.313.194-.724.097-.917-.216-.194-.313-.097-.724.216-.918 1.5-.927 4.12-1.05 6.005-.017zm11.333 0c.323.177.441.582.264.905-.177.323-.582.441-.905.264-1.454-.797-3.562-.698-4.662-.018-.313.194-.724.097-.918-.216-.194-.313-.097-.724.216-.918 1.5-.927 4.12-1.05 6.005-.017z"/>
</svg>
