<svg xmlns="http://www.w3.org/2000/svg" width="32" height="32" fill="none" viewBox="0 0 32 32">
    <path fill="#222" d="M24.667 8c1.104 0 2 .895 2 2s-.896 2-2 2h-3.334c0 1.473-1.194 2.667-2.666 2.667h-2v5.575c2.353.252 4.467 1.822 5.296 4.206.121.347-.063.727-.41.848-.348.121-.728-.063-.85-.41-.637-1.833-2.236-3.056-4.035-3.3l-.001 3.08c0 .369-.299.667-.667.667-.327 0-.6-.235-.656-.546l-.01-.12v-3.082c-.324.044-.649.121-.97.233-1.438.5-2.568 1.63-3.068 3.068-.12.347-.5.531-.848.41-.348-.12-.532-.5-.411-.848.634-1.823 2.066-3.256 3.89-3.89.465-.161.937-.266 1.407-.316v-5.575h-2c-1.473 0-2.667-1.194-2.667-2.667H7.333c-1.104 0-2-.895-2-2s.896-2 2-2h17.334zM20 12h-8c0 .684.515 1.247 1.178 1.324l.155.01h5.334c.683 0 1.247-.515 1.324-1.178L20 12zm4.667-2.667H7.333c-.368 0-.666.299-.666.667 0 .327.236.6.546.656l.12.01h17.334c.368 0 .666-.298.666-.666 0-.327-.235-.6-.546-.656l-.12-.01z"/>
</svg>
